<svg width="80" height="80" viewBox="0 0 80 80" fill="none" xmlns="http://www.w3.org/2000/svg">
<rect width="80" height="80" rx="24" fill="#20303F"/>
<path d="M64.15 15.8669C57.7517 9.46863 49.2371 5.92495 40.181 5.87573H39.8365C30.7148 5.92495 22.1673 9.51785 15.7526 15.9982C9.33789 22.4785 5.82703 31.0588 5.87624 40.1805C5.97468 58.9324 21.265 74.1243 40.0005 74.1243C58.7361 74.1243 40.1154 74.1243 40.181 74.1243C49.3027 74.0751 57.8502 70.4822 64.2649 64.0019C70.6796 57.5215 74.1905 48.9412 74.1412 39.8196C74.092 30.7635 70.5483 22.2652 64.15 15.8669ZM38.5404 41.4766V50.3029C30.6164 50.5654 22.7415 52.9607 15.8346 57.4887C12.537 52.9443 10.4863 47.4319 10.191 41.4766H38.5404ZM10.2074 38.5235C10.4863 32.6994 12.4386 27.1706 15.8346 22.4949C22.7415 27.023 30.6164 29.4346 38.5568 29.6971V38.5235H10.2074ZM41.4935 41.4766H69.8429C69.564 47.3007 67.6117 52.8294 64.2157 57.5051C57.3088 52.9771 49.4339 50.5654 41.4935 50.3029V41.4766ZM41.4935 38.5235V29.6971C49.4175 29.4346 57.3088 27.0394 64.2157 22.4949C67.6117 27.1542 69.564 32.683 69.8429 38.5235H41.4935ZM62.3618 20.1817C55.9963 24.2832 48.7777 26.4816 41.5099 26.744V10.1905C48.9254 10.5514 55.8651 13.6193 61.1478 18.902C61.5743 19.3286 61.9681 19.7551 62.3618 20.1981V20.1817ZM38.5404 10.1741V26.7276C31.2726 26.4652 24.0376 24.2832 17.6885 20.1653C18.0494 19.7551 18.4104 19.3614 18.8041 18.9841C24.1032 13.6357 31.0757 10.535 38.5568 10.1741H38.5404ZM17.7049 59.802C24.0704 55.7005 31.2726 53.5185 38.5568 53.256V69.8096C30.2882 69.3994 22.8892 65.6097 17.7049 59.802ZM41.4935 69.826V53.2724C48.7613 53.5349 55.9963 55.7169 62.3454 59.8348C61.9845 60.2449 61.6235 60.6387 61.2298 61.016C55.9307 66.3643 48.9582 69.465 41.4771 69.826H41.4935Z" fill="#20303F"/>
<path d="M53.0432 11.6835C52.8464 10.6499 50.3527 9.86243 50.3527 9.86243C50.3199 9.87883 48.8269 11.2569 48.466 11.8475C47.6129 13.242 47.0223 14.292 46.5465 15.9654C46.3332 16.7365 45.9067 17.9834 45.9723 19.9685C46.0051 20.8872 46.5629 24.3324 46.6942 25.4973C46.8254 26.6785 46.9566 28.5652 46.4153 29.6972C45.8903 30.8292 45.677 31.4034 45.8903 32.1417C46.0871 32.8799 46.7598 33.3065 47.1043 34.2744C47.4488 35.2424 47.4816 36.5384 47.0715 37.8345C46.6613 39.1306 46.2676 40.2134 45.5129 41.2305C45.0536 41.8375 43.5606 43.8883 43.9216 45.857C44.0692 46.7101 44.3809 48.0554 44.627 49.2858C44.9059 50.6639 45.1028 52.0584 45.2504 53.4037C45.3653 54.4373 45.5129 56.4224 45.7262 57.2099C45.9231 57.9482 45.9395 57.7677 46.0543 59.3919C46.0871 59.7528 46.1035 60.2286 46.0543 60.77C46.0051 61.0653 45.9395 61.377 45.8246 61.6887C45.5293 62.5746 45.2012 63.4277 44.5778 64.1004C44.0528 64.6582 42.8224 65.8558 39.9513 66.2495C39.5576 66.3152 39.049 66.2495 38.4912 66.2167C38.0154 66.1839 36.8998 65.823 36.0139 65.1011C35.735 64.8714 35.4889 64.6582 35.292 64.4449C34.7014 63.8871 34.521 63.4113 34.4225 62.8207C34.2093 61.5246 35.5545 58.9817 35.8498 58.2763C36.4241 56.8818 36.8998 55.9958 37.0475 54.6342C37.1459 53.6826 36.9819 51.1233 36.26 49.8436C35.4397 48.4163 33.4382 45.8078 32.3882 44.6922C31.6827 43.9375 30.4523 42.5758 30.157 41.2469C29.8289 39.7212 30.9609 37.654 31.371 36.9814C32.257 35.5213 33.9632 31.0589 34.2585 28.5324C34.6358 25.3988 34.2585 22.6262 33.9304 21.5434C33.4874 20.1489 32.5851 17.7701 31.7812 16.392C30.764 14.6201 28.8117 12.0116 27.4336 10.5351C26.2196 10.9944 25.0384 11.5686 23.8735 12.1428C24.5462 12.7991 25.2352 13.5209 25.8094 14.2592C26.761 15.4568 29.3859 19.3779 29.632 20.0505C29.9273 20.8708 30.8296 22.577 30.9445 24.9231C31.0101 26.1863 30.8789 27.3675 30.6328 28.7784C30.3703 30.3206 29.7469 32.0268 29.3039 32.7979C28.5492 34.1268 27.7453 35.7674 26.9086 37.0962C26.4657 37.7853 25.6946 39.8196 26.154 41.4274C26.9414 44.2 29.1562 46.0703 30.0258 47.2187C30.9117 48.3507 32.4374 50.2702 32.6999 50.828C32.946 51.3694 33.4546 52.2881 33.553 53.8631C33.6022 54.5849 33.3069 55.6021 32.5687 57.3083C31.9781 58.6864 31.4859 59.195 30.8789 60.5731C30.3867 61.7051 30.5179 63.4605 30.9281 64.7894C31.3546 66.2167 32.5359 67.3651 33.996 68.2839C34.1272 68.3659 34.2585 68.4479 34.3897 68.5136C34.4225 68.53 34.4718 68.5628 34.5046 68.5792C34.7507 68.7104 34.9639 68.8253 35.1608 68.9237C35.6858 69.2026 36.0795 69.3995 36.703 69.5963C37.0311 69.6948 38.0811 70.0229 39.0162 70.1213C40.099 70.2198 40.8537 70.0393 41.5755 69.9901C44.3481 69.7932 45.5293 68.5956 46.6449 67.6112C46.7434 67.5292 46.8418 67.4472 46.9402 67.3487C47.5801 66.8237 48.0066 66.3644 48.2363 65.9706C48.5152 65.5933 48.7941 65.0847 48.9254 64.8222C49.4339 63.7394 49.9917 62.6566 50.0738 61.377C50.1558 60.0973 50.2214 59.9005 49.8933 57.62C49.6964 56.2747 49.516 55.6185 49.1386 54.224C48.6465 52.3865 48.548 49.9749 48.3512 49.1382C47.8918 47.2023 47.2191 45.939 47.8262 44.889C49.3191 42.3461 49.3683 42.1 50.1886 40.7548C50.9761 39.4587 50.9597 38.4579 51.1073 37.0798C51.337 35.0291 50.6972 32.519 49.8933 31.5182C49.2043 30.6651 50.1066 29.5003 50.3363 28.3355C50.5824 27.1707 50.3199 24.2996 50.041 23.0692C49.7785 21.9044 49.5324 19.0333 49.7785 18.0654C50.1394 16.6709 50.4347 15.7193 51.173 14.292C52.0261 12.635 53.2729 12.6842 53.0761 11.6671L53.0432 11.6835Z" fill="#B8FD6E"/>
<path d="M40.181 5.87573H39.8365C30.7148 5.92495 22.1673 9.51785 15.7526 15.9982C9.33789 22.4785 5.82703 31.0588 5.87624 40.1805C5.97468 58.9324 21.265 74.1243 40.0005 74.1243C58.7361 74.1243 40.1154 74.1243 40.181 74.1243C49.3027 74.0751 57.8502 70.4822 64.2649 64.0019C70.6796 57.5215 74.1905 48.9412 74.1412 39.8196C74.092 30.7635 70.5483 22.2652 64.15 15.8669C57.7517 9.46863 49.2371 5.92495 40.181 5.87573ZM38.5404 69.826C30.2718 69.4158 22.8728 65.6261 17.6885 59.8184C24.054 55.7169 31.2562 53.5349 38.5404 53.2724V69.826ZM38.5404 38.5235H30.5671C30.2226 39.3766 29.9437 40.3938 30.1242 41.2469C30.1242 41.3289 30.157 41.3945 30.1898 41.4766H38.5404V50.3029C30.6164 50.5654 22.7415 52.9607 15.8346 57.4887C12.537 52.9443 10.4863 47.4319 10.191 41.4766H26.1211C26.1211 41.4766 26.1211 41.4602 26.1211 41.4437C25.8586 40.4922 26.0063 39.4094 26.2688 38.5235H10.2074C10.4863 32.6994 12.4386 27.1706 15.8346 22.4949C22.7415 27.023 30.6164 29.4346 38.5568 29.6971V38.5235H38.5404ZM38.5404 26.744C31.2726 26.4816 24.0376 24.2996 17.6885 20.1817C18.0494 19.7715 18.4104 19.3778 18.8041 19.0005C24.1032 13.6521 31.0757 10.5514 38.5568 10.1905V26.744H38.5404ZM64.2157 57.5051C59.3759 54.3224 54.044 52.1896 48.5644 51.1232C48.6793 52.1076 48.8269 53.256 49.0894 54.2568C53.7323 55.3067 58.2111 57.1606 62.3454 59.8348C61.9845 60.2449 61.6235 60.6387 61.2298 61.016C55.9307 66.3643 48.9582 69.465 41.4771 69.826V53.2724C42.7403 53.3216 43.9872 53.4201 45.234 53.5841C45.234 53.5349 45.234 53.4857 45.234 53.4365C45.1192 52.4849 45.0043 51.517 44.8403 50.5654C43.7247 50.4506 42.6091 50.3686 41.4935 50.3193V41.493H69.8429C69.564 47.3171 67.6117 52.8459 64.2157 57.5215V57.5051ZM69.8429 38.5235H41.4935V29.6971C43.1833 29.6479 44.8895 29.4838 46.5629 29.2378C46.8254 28.3354 46.809 27.187 46.7434 26.2191C45.0043 26.5144 43.2489 26.6784 41.4935 26.744V10.1905C48.9089 10.5514 55.8486 13.6193 61.1314 18.902C61.5579 19.3286 61.9516 19.7551 62.3454 20.1981C58.572 22.6262 54.5034 24.398 50.3035 25.4808C50.3855 26.5964 50.4183 27.7448 50.2706 28.3846C50.2706 28.4339 50.2542 28.4831 50.2378 28.5323C55.1268 27.3675 59.8517 25.366 64.1993 22.5113C67.5953 27.1706 69.5476 32.6994 69.8265 38.5399L69.8429 38.5235Z" fill="#FAFAFA"/>
</svg>
