<svg width="80" height="80" viewBox="0 0 80 80" fill="none" xmlns="http://www.w3.org/2000/svg">
<rect width="80" height="80" fill="#21374B"/>
<path d="M14 25.5047V54.5094L39.5 69L65 54.4953V25.5047L39.5 11L14 25.5047ZM15.5325 26.3755L39.5 12.7415V19.064L21.086 29.532V49.5972L15.5325 52.7631V26.3755ZM63.4675 53.6387L39.5 67.268L16.3012 54.074L21.8547 50.9129L39.5 60.955L57.9139 50.4822L63.4675 53.6387ZM56.3815 49.5972L39.5 59.204V52.9098L50.8231 46.4692V34.4536L56.3815 31.2923V49.5972ZM29.7093 45.5748V34.4536L39.5 28.8694L49.2906 34.4536V45.5748L39.5 51.1447L29.7093 45.5748ZM50.0594 33.1285L39.4904 27.1232L28.1768 33.5641L22.6233 30.4075L39.5 20.8055L55.6129 29.9721L50.0594 33.1285Z" fill="white"/>
</svg>
